<svg width="16" height="16" viewBox="0 0 16 16" fill="none" xmlns="http://www.w3.org/2000/svg">
<path d="M8 1C4.13438 1 1 4.13438 1 8C1 11.8656 4.13438 15 8 15C11.8656 15 15 11.8656 15 8C15 4.13438 11.8656 1 8 1ZM8 13.8125C4.79063 13.8125 2.1875 11.2094 2.1875 8C2.1875 4.79063 4.79063 2.1875 8 2.1875C11.2094 2.1875 13.8125 4.79063 13.8125 8C13.8125 11.2094 11.2094 13.8125 8 13.8125Z" fill="black" fill-opacity="0.8"/>
<path d="M8 2.1875C4.79063 2.1875 2.1875 4.79063 2.1875 8C2.1875 11.2094 4.79063 13.8125 8 13.8125C11.2094 13.8125 13.8125 11.2094 13.8125 8C13.8125 4.79063 11.2094 2.1875 8 2.1875ZM10.6844 10.4234C10.7031 10.4469 10.7141 10.475 10.7141 10.5047C10.7141 10.575 10.6578 10.6297 10.5891 10.6297L9.55781 10.625L8.00625 8.775L6.45469 10.6266L5.42188 10.6313C5.35312 10.6313 5.29688 10.575 5.29688 10.5063C5.29688 10.4766 5.30781 10.4484 5.32656 10.425L7.35938 8.00469L5.32656 5.58281C5.30768 5.55991 5.29721 5.53124 5.29688 5.50156C5.29687 5.43125 5.35312 5.37656 5.42188 5.37656L6.45469 5.38125L8.00625 7.23125L9.55937 5.37969L10.5906 5.375C10.6594 5.375 10.7156 5.43125 10.7156 5.5C10.7156 5.52969 10.7063 5.55938 10.6875 5.58125L8.65469 8.00313L10.6844 10.4234V10.4234Z" fill="black" fill-opacity="0.1"/>
<path d="M10.7156 5.5C10.7156 5.43125 10.6594 5.375 10.5906 5.375L9.55937 5.37969L8.00625 7.23125L6.45469 5.38125L5.42188 5.37656C5.35312 5.37656 5.29688 5.43125 5.29688 5.50156C5.29688 5.53125 5.30781 5.55937 5.32656 5.58281L7.35938 8.00469L5.32656 10.425C5.30768 10.4479 5.29721 10.4766 5.29688 10.5063C5.29687 10.575 5.35312 10.6313 5.42188 10.6313L6.45469 10.6266L8.00625 8.775L9.55781 10.625L10.5891 10.6297C10.6578 10.6297 10.7141 10.575 10.7141 10.5047C10.7141 10.475 10.7031 10.4469 10.6844 10.4234L8.65469 8.00313L10.6875 5.58125C10.7063 5.55938 10.7156 5.52969 10.7156 5.5V5.5Z" fill="black" fill-opacity="0.8"/>
</svg>
