<svg width="16" height="16" viewBox="0 0 16 16" fill="none" xmlns="http://www.w3.org/2000/svg">
<path d="M14.5531 7.79531L1.48281 1.24219C1.42969 1.21563 1.36875 1.20938 1.31094 1.22344C1.17813 1.25625 1.09531 1.39063 1.12813 1.525L2.475 7.02812C2.49531 7.11094 2.55625 7.17813 2.6375 7.20469L4.94531 7.99687L2.63906 8.78906C2.55781 8.81719 2.49688 8.88281 2.47813 8.96562L1.12813 14.4766C1.11406 14.5344 1.12031 14.5953 1.14688 14.6469C1.20781 14.7703 1.35781 14.8203 1.48281 14.7594L14.5531 8.24375C14.6016 8.22031 14.6406 8.17969 14.6656 8.13281C14.7266 8.00781 14.6766 7.85781 14.5531 7.79531ZM2.66875 12.9109L3.45469 9.69844L8.06719 8.11563C8.10312 8.10313 8.13281 8.075 8.14531 8.0375C8.16719 7.97188 8.13281 7.90156 8.06719 7.87813L3.45469 6.29688L2.67188 3.09688L12.4844 8.01719L2.66875 12.9109V12.9109Z" fill="black"/>
</svg>
